<?xml version="1.0" encoding="utf-8"?>
<!-- Generator: Adobe Illustrator 19.2.1, SVG Export Plug-In . SVG Version: 6.00 Build 0)  -->
<svg version="1.1" id="Capa_1" xmlns="http://www.w3.org/2000/svg" xmlns:xlink="http://www.w3.org/1999/xlink" x="0px" y="0px"
	 width="600px" height="600px" viewBox="0 0 600 600" style="enable-background:new 0 0 600 600;" xml:space="preserve">
<style type="text/css">
	.st0{fill-rule:evenodd;clip-rule:evenodd;fill:#969da6;}
</style>
<path class="st0" d="M300.6,11.4C138.1,11.4,6.3,143.2,6.3,305.7c0,130,84.3,240.3,201.3,279.2c14.7,2.7,20.1-6.4,20.1-14.2
	c0-7-0.3-25.5-0.4-50.1c-81.9,17.8-99.1-39.4-99.1-39.4c-13.4-34-32.7-43-32.7-43c-26.7-18.3,2-17.9,2-17.9
	c29.5,2.1,45.1,30.3,45.1,30.3c26.3,45,68.9,32,85.6,24.5c2.7-19,10.3-32,18.7-39.3c-65.3-7.4-134-32.7-134-145.4
	c0-32.1,11.5-58.4,30.3-79c-3-7.4-13.1-37.4,2.9-77.9c0,0,24.7-7.9,80.9,30.2c23.5-6.5,48.6-9.8,73.7-9.9c25,0.1,50.2,3.4,73.7,9.9
	c56.2-38.1,80.8-30.2,80.8-30.2c16.1,40.5,6,70.4,2.9,77.9c18.9,20.6,30.3,46.8,30.3,79c0,113.1-68.8,137.9-134.4,145.2
	c10.6,9.1,20,27,20,54.5c0,39.3-0.4,71.1-0.4,80.7c0,7.9,5.3,17,20.2,14.2c116.8-39,201.1-149.2,201.1-279.2
	C594.9,143.2,463.1,11.4,300.6,11.4z"/>
</svg>
